<?xml version="1.0" encoding="utf-8"?>
<!-- Generator: Adobe Illustrator 22.0.1, SVG Export Plug-In . SVG Version: 6.00 Build 0)  -->
<svg version="1.1" id="Layer_1" xmlns="http://www.w3.org/2000/svg" xmlns:xlink="http://www.w3.org/1999/xlink" x="0px" y="0px"
	 viewBox="0 0 512 512" style="enable-background:new 0 0 512 512;" xml:space="preserve">
<style type="text/css">
	.st0{fill:#D0CDE1;}
	.st1{fill:#18D266;}
	.st2{fill:#FFFFFF;}
</style>
<path class="st0" d="M257.1,461c-2,0-4,0-6-0.1l0.1-2c2,0.1,4,0.1,5.9,0.1c2,0,4,0,6-0.1l0.1,2C261.1,461,259.1,461,257.1,461z
	 M239.1,460.2c-4-0.4-8-0.9-12-1.5l0.3-2c3.9,0.6,7.9,1.1,11.8,1.5L239.1,460.2z M275.2,460.1l-0.2-2c3.9-0.4,7.9-0.9,11.8-1.5
	l0.3,2C283.2,459.2,279.1,459.8,275.2,460.1L275.2,460.1z M215.3,456.4c-3.9-0.9-7.8-1.9-11.7-3l0.6-1.9c3.8,1.1,7.7,2.1,11.5,3
	L215.3,456.4z M298.9,456.3l-0.4-1.9c3.9-0.9,7.7-1.9,11.5-3l0.6,1.9C306.8,454.4,302.8,455.4,298.9,456.3L298.9,456.3z
	 M192.2,449.5c-3.8-1.4-7.5-2.9-11.2-4.5l0.8-1.8c3.6,1.6,7.3,3.1,11.1,4.5L192.2,449.5z M322,449.5l-0.7-1.9
	c3.7-1.4,7.4-2.9,11-4.5l0.8,1.8C329.5,446.6,325.8,448.1,322,449.5z M170.1,439.8c-3.5-1.8-7.1-3.8-10.5-5.9l1-1.7
	c3.4,2.1,6.9,4,10.4,5.9L170.1,439.8z M344,439.7l-0.9-1.8c3.5-1.8,7-3.8,10.4-5.9l1,1.7C351.1,435.9,347.5,437.9,344,439.7z
	 M149.5,427.3c-3.3-2.3-6.5-4.7-9.7-7.2l1.2-1.6c3.1,2.5,6.3,4.9,9.6,7.1L149.5,427.3z M364.6,427.2l-1.1-1.6
	c3.2-2.3,6.5-4.7,9.5-7.1l1.2,1.6C371.1,422.5,367.9,424.9,364.6,427.2z M130.7,412.2c-3-2.7-5.9-5.5-8.7-8.4l1.4-1.4
	c2.8,2.8,5.6,5.6,8.6,8.3L130.7,412.2z M383.4,412.2l-1.3-1.5c2.9-2.7,5.8-5.4,8.6-8.3l1.4,1.4C389.3,406.7,386.3,409.5,383.4,412.2
	z M113.9,395c-2.6-3-5.1-6.2-7.5-9.4l1.6-1.2c2.4,3.2,4.9,6.3,7.4,9.3L113.9,395z M400.1,394.9l-1.5-1.3c2.6-3,5.1-6.1,7.4-9.3
	l1.6,1.2C405.3,388.7,402.7,391.8,400.1,394.9L400.1,394.9z M99.5,375.7c-2.2-3.4-4.3-6.8-6.3-10.3l1.7-1c1.9,3.4,4,6.9,6.2,10.2
	L99.5,375.7z M414.6,375.6l-1.7-1.1c2.2-3.3,4.2-6.8,6.2-10.2l1.7,1C418.9,368.8,416.8,372.2,414.6,375.6L414.6,375.6z M87.7,354.7
	c-1.7-3.6-3.4-7.3-4.9-11l1.9-0.8c1.5,3.7,3.1,7.3,4.8,10.9L87.7,354.7z M426.4,354.6l-1.8-0.9c1.7-3.6,3.3-7.2,4.8-10.9l1.9,0.8
	C429.8,347.3,428.2,351,426.4,354.6z M78.6,332.4c-1.3-3.8-2.4-7.7-3.4-11.5l1.9-0.5c1,3.8,2.1,7.7,3.4,11.4L78.6,332.4z
	 M435.5,332.2l-1.9-0.6c1.2-3.8,2.4-7.6,3.4-11.4l1.9,0.5C437.9,324.5,436.7,328.4,435.5,332.2z M72.5,309.1
	c-0.8-3.9-1.4-7.9-1.9-11.9l2-0.3c0.5,3.9,1.1,7.9,1.9,11.8L72.5,309.1z M441.6,308.9l-2-0.4c0.8-3.9,1.4-7.8,1.9-11.8l2,0.3
	C443,301,442.3,305,441.6,308.9L441.6,308.9z M69.4,285.3c-0.3-4-0.4-8-0.4-12l2,0c0,4,0.1,8,0.4,11.9L69.4,285.3z M444.6,285
	l-2-0.1c0.2-3.9,0.4-7.9,0.4-11.9l0-0.4h2l0,0.4C445,277,444.9,281.1,444.6,285L444.6,285z M71.4,261.3l-2-0.1c0.2-4,0.6-8,1.1-12
	l2,0.3C72,253.4,71.6,257.4,71.4,261.3z M442.6,260.6c-0.3-4-0.6-7.9-1.2-11.9l2-0.3c0.5,4,0.9,8,1.2,12L442.6,260.6z M74.4,237.7
	l-2-0.4c0.8-3.9,1.6-7.9,2.7-11.8L77,226C76,229.9,75.1,233.8,74.4,237.7z M439.5,237c-0.8-3.9-1.7-7.8-2.7-11.6l1.9-0.5
	c1,3.9,1.9,7.8,2.7,11.7L439.5,237z M80.3,214.6l-1.9-0.6c1.3-3.8,2.7-7.6,4.2-11.3l1.9,0.7C83,207.1,81.6,210.9,80.3,214.6z
	 M433.4,214c-1.3-3.8-2.6-7.5-4.1-11.2l1.9-0.8c1.5,3.7,2.9,7.5,4.2,11.3L433.4,214z M89.3,192.5l-1.8-0.9c1.7-3.6,3.6-7.2,5.6-10.7
	l1.7,1C92.9,185.4,91,188.9,89.3,192.5z M424.5,191.9c-1.7-3.6-3.6-7.1-5.5-10.5l1.7-1c2,3.5,3.9,7.1,5.6,10.7L424.5,191.9z
	 M101,171.7l-1.7-1.1c2.2-3.4,4.5-6.7,6.9-9.9l1.6,1.2C105.4,165.1,103.1,168.4,101,171.7z M412.7,171.2c-2.2-3.3-4.5-6.6-6.8-9.8
	l1.6-1.2c2.4,3.2,4.7,6.5,6.9,9.9L412.7,171.2z M115.2,152.6l-1.5-1.3c2.6-3,5.3-6.1,8.1-8.9l1.4,1.4
	C120.5,146.6,117.8,149.6,115.2,152.6z M398.4,152.2c-2.6-3-5.3-6-8-8.8l1.4-1.4c2.8,2.9,5.5,5.9,8.1,8.9L398.4,152.2z M131.8,135.4
	l-1.3-1.5c3-2.7,6-5.3,9.2-7.8l1.3,1.6C137.8,130.2,134.7,132.8,131.8,135.4z M381.8,135.1c-2.9-2.7-6-5.3-9.1-7.7l1.2-1.6
	c3.1,2.5,6.2,5.1,9.2,7.8L381.8,135.1z M150.4,120.6l-1.1-1.6c3.3-2.3,6.7-4.5,10.1-6.6l1,1.7C157,116.1,153.6,118.3,150.4,120.6z
	 M363.2,120.2c-3.3-2.3-6.6-4.5-10-6.5l1-1.7c3.4,2.1,6.8,4.3,10.1,6.6L363.2,120.2z M170.7,108.2l-0.9-1.8
	c3.5-1.9,7.2-3.6,10.8-5.2l0.8,1.8C177.8,104.6,174.2,106.3,170.7,108.2z M342.7,107.9c-3.5-1.8-7.1-3.6-10.8-5.2l0.8-1.8
	c3.7,1.6,7.3,3.4,10.9,5.2L342.7,107.9z M192.5,98.5l-0.7-1.9c3.8-1.4,7.6-2.7,11.4-3.8l0.6,1.9C200,95.9,196.2,97.1,192.5,98.5z
	 M320.9,98.3c-3.7-1.4-7.5-2.6-11.3-3.7l0.6-1.9c3.8,1.1,7.7,2.4,11.4,3.8L320.9,98.3z M215.3,91.7l-0.4-1.9
	c3.9-0.9,7.9-1.7,11.8-2.3l0.3,2C223.1,90,219.1,90.8,215.3,91.7z M298.1,91.5c-3.9-0.9-7.8-1.6-11.7-2.2l0.3-2
	c4,0.6,7.9,1.4,11.8,2.3L298.1,91.5z M238.8,87.9l-0.2-2c4-0.4,8-0.6,12-0.8l0.1,2C246.7,87.2,242.7,87.5,238.8,87.9L238.8,87.9z
	 M274.5,87.8c-3.9-0.4-7.9-0.6-11.9-0.7l0.1-2c4,0.1,8,0.4,12,0.7L274.5,87.8z"/>
<circle class="st1" cx="250" cy="90" r="47"/>
<circle class="st1" cx="432" cy="218" r="47"/>
<circle class="st1" cx="375" cy="414" r="47"/>
<circle class="st1" cx="149" cy="422" r="47"/>
<circle class="st1" cx="81" cy="218" r="47"/>
<path class="st2" d="M270.1,86.3h-16.4c-3.1,0-5.6-2.5-5.6-5.6V64.2c0-0.3-0.2-0.5-0.5-0.5l0,0h-10.8c-4.1,0-7.5,3.4-7.5,7.5v37.5
	c0,4.1,3.4,7.5,7.5,7.5l0,0h26.2c4.1,0,7.5-3.4,7.5-7.5c0,0,0,0,0,0v-22C270.6,86.5,270.4,86.3,270.1,86.3L270.1,86.3z M259.4,105
	h-18.7c-1,0-1.9-0.8-1.9-1.9s0.8-1.9,1.9-1.9h18.7c1,0,1.9,0.8,1.9,1.9S260.4,105,259.4,105z M259.4,95.6h-18.7
	c-1,0-1.9-0.8-1.9-1.9s0.8-1.9,1.9-1.9h18.7c1,0,1.9,0.8,1.9,1.9S260.4,95.6,259.4,95.6z"/>
<path class="st2" d="M269.1,82.1l-16.8-16.8c-0.1-0.1-0.2-0.1-0.3,0c0,0-0.1,0.1-0.1,0.2v15.2c0,1,0.8,1.9,1.9,1.9h15.2
	c0.1,0,0.2-0.1,0.2-0.2C269.2,82.2,269.2,82.1,269.1,82.1L269.1,82.1z"/>
<path class="st2" d="M381.8,404.7c-1.4,0-2.5,1.1-2.5,2.5c0,1.4,1.1,2.5,2.5,2.5c1.4,0,2.5-1.1,2.5-2.5c0-0.7-0.3-1.3-0.7-1.8
	C383.1,405,382.5,404.7,381.8,404.7z"/>
<path class="st2" d="M395.7,394.8L395.7,394.8c-0.2-0.7-0.7-1.3-1.4-1.4c-2.8-0.7-7.2,0-12,2c-4.7,1.8-8.9,4.5-12.6,8
	c-1,1-1.9,2-2.8,3.2c-1.9-0.1-3.7,0.2-5.5,0.9c-5.4,2.4-6.9,8.4-7.3,10.9c-0.2,1.3,0.6,2.5,1.9,2.7c0.2,0,0.4,0,0.6,0h0l6-0.7
	c0,0.1,0,0.1,0,0.2c0.1,0.7,0.4,1.4,0.9,1.9l2.9,2.9c0.5,0.5,1.2,0.8,1.9,0.9l0.2,0l-0.7,6v0c-0.1,1.3,0.8,2.4,2.1,2.6l0,0
	c0.1,0,0.1,0,0.2,0c0.1,0,0.3,0,0.4,0c2.5-0.4,8.6-1.9,10.9-7.3c0.7-1.7,1-3.6,0.9-5.4c1.1-0.8,2.2-1.8,3.2-2.8
	c3.4-3.6,6.1-7.8,8-12.5C395.6,402.1,396.3,397.7,395.7,394.8z M385.7,411.1c-2.1,2.1-5.6,2.1-7.8,0s-2.1-5.6,0-7.8
	c2.1-2.1,5.6-2.1,7.8,0l0,0l0,0C387.8,405.5,387.8,408.9,385.7,411.1L385.7,411.1L385.7,411.1z"/>
<path class="st2" d="M366.2,426.2c-0.4,0-0.7,0-1,0.2c-0.6,0.4-1.2,0.8-1.8,1.2c-0.6,0.4-1.5,0.2-1.9-0.4c-0.3-0.4-0.3-1,0-1.4
	l1.1-2c0.5-0.7,0.3-1.6-0.4-2.1c-0.3-0.2-0.7-0.3-1-0.2c-1.3,0.2-2.4,0.7-3.3,1.6c-0.3,0.3-1.4,1.4-1.9,5.3
	c-0.2,1.1-0.3,2.3-0.3,3.4c0,0.8,0.6,1.5,1.5,1.5l0,0c0,0,0,0,0,0h0c1.1,0,2.3-0.1,3.4-0.3c4-0.6,5-1.6,5.3-1.9
	c0.9-0.9,1.5-2.1,1.6-3.3C367.6,427,367,426.3,366.2,426.2z"/>
<path class="st2" d="M132.8,447.5h-3.4c-1.4,0-2.6-1.1-2.6-2.6l0,0v-15.3c0-1.4,1.1-2.6,2.6-2.6l0,0h3.4c1.4,0,2.6,1.1,2.6,2.6l0,0
	V445C135.4,446.4,134.2,447.5,132.8,447.5L132.8,447.5z"/>
<path class="st2" d="M156.7,447.5h-3.4c-1.4,0-2.6-1.1-2.6-2.6l0,0v-25.5c0-1.4,1.1-2.6,2.6-2.6l0,0h3.4c1.4,0,2.6,1.1,2.6,2.6l0,0
	V445C159.2,446.4,158.1,447.5,156.7,447.5L156.7,447.5z"/>
<path class="st2" d="M168.6,447.5h-3.4c-1.4,0-2.6-1.1-2.6-2.6l0,0v-37.5c0-1.4,1.1-2.6,2.6-2.6h3.4c1.4,0,2.6,1.1,2.6,2.6V445
	C171.1,446.4,170,447.5,168.6,447.5L168.6,447.5z"/>
<path class="st2" d="M144.7,447.5h-3.4c-1.4,0-2.6-1.1-2.6-2.6l0,0v-46c0-1.4,1.1-2.6,2.6-2.6h3.4c1.4,0,2.6,1.1,2.6,2.6v46
	C147.3,446.4,146.2,447.5,144.7,447.5L144.7,447.5z"/>
<path class="st2" d="M434.3,216.8l-2.4-2.4c-1.2-1.2-3-1.2-4.2,0l-16.9,15.6c-0.6,0.5-1,1.3-1.1,2.1c0,0.8,0.3,1.6,0.9,2.2l3.6,3.7
	l0,0c0.6,0.6,1.3,0.9,2.1,0.9h0.1c0.8,0,1.6-0.4,2.2-1l15.7-16.8C435.4,219.8,435.4,217.9,434.3,216.8L434.3,216.8z"/>
<path class="st2" d="M453.8,211.9L453.8,211.9l-3.2-3.2c-0.4-0.4-0.9-0.6-1.4-0.6c-0.4,0-0.8,0.1-1.2,0.4c0,0,0-0.1,0-0.1
	c0.1-0.8,0-1.7-0.5-2.4c-0.7-0.9-1.5-1.8-2.3-2.7l0,0c-2.3-2.2-5.1-4-8.1-5.2c-1.6-0.6-3.2-1-4.9-1c-2.2,0-4.3,0.7-6,2.1
	c-0.5,0.5-0.9,1-1.3,1.5c-0.5,0.7-0.3,1.6,0.3,2.1c0.4,0.3,0.9,0.4,1.4,0.2c0.3-0.1,0.5-0.2,0.8-0.2c0.6-0.1,1.1-0.2,1.7-0.1
	c1.2,0.1,2.3,0.5,3.3,1.2c1.1,0.9,1.8,2.4,1.7,3.8c-0.4,1.2-1,2.3-1.9,3.2c-0.5,0.6-0.4,1.4,0.1,2l3.2,3.2c0.6,0.6,1.5,0.6,2,0.1
	c0.9-0.8,2.3-2,2.8-2.3c0.4-0.3,0.9-0.5,1.4-0.5c0.4,0,0.7,0,1.1,0.2c0,0,0,0.1,0,0.1l-0.2,0.2l0,0c-0.8,0.8-0.8,2.1,0,2.8l0,0
	l3.2,3.2c0.4,0.4,0.9,0.6,1.4,0.6c0.5,0,1-0.2,1.4-0.6l5.2-5.1c0,0,0,0,0.1-0.1C454.6,213.8,454.5,212.6,453.8,211.9z"/>
<path class="st2" d="M88.5,215.2c-1,0-1.9-0.8-1.9-1.9c0-0.5,0.2-1,0.5-1.3l4.3-4.3l-4.3-4.3c-0.7-0.7-0.7-1.9,0-2.6
	c0.7-0.7,1.9-0.7,2.6,0l5.6,5.6c0.7,0.7,0.7,1.9,0,2.6c0,0,0,0,0,0l-5.6,5.6C89.4,215,89,215.2,88.5,215.2z"/>
<path class="st2" d="M58.6,220.8c-1,0-1.9-0.8-1.9-1.9c0,0,0,0,0,0v-1.9c0-6.2,5-11.2,11.2-11.2h24.3c1,0,1.9,0.8,1.9,1.9
	c0,1-0.8,1.9-1.9,1.9c0,0,0,0,0,0H67.9c-4.1,0-7.4,3.4-7.5,7.5v1.9C60.5,220,59.6,220.8,58.6,220.8
	C58.6,220.8,58.6,220.8,58.6,220.8z"/>
<path class="st2" d="M73.5,235.7c-0.5,0-1-0.2-1.3-0.5l-5.6-5.6c-0.7-0.7-0.7-1.9,0-2.6c0,0,0,0,0,0l5.6-5.6c0.7-0.7,1.9-0.7,2.6,0
	c0.7,0.7,0.7,1.9,0,2.6l-4.3,4.3l4.3,4.3c0.7,0.7,0.7,1.9,0,2.6C74.5,235.5,74,235.7,73.5,235.7L73.5,235.7z"/>
<path class="st2" d="M69.8,230.1c-1,0-1.9-0.8-1.9-1.9c0-1,0.8-1.9,1.9-1.9h24.3c4.1,0,7.4-3.4,7.5-7.5v-1.9c0-1,0.8-1.9,1.9-1.9
	c1,0,1.9,0.8,1.9,1.9v1.9c0,6.2-5,11.2-11.2,11.2L69.8,230.1z"/>
</svg>
